<svg width="995" height="658" viewBox="0 0 995 658" fill="none" xmlns="http://www.w3.org/2000/svg">
<mask id="mask0_1256_262" style="mask-type:alpha" maskUnits="userSpaceOnUse" x="0" y="0" width="995" height="658">
<rect width="995" height="658" fill="#111B2E"/>
</mask>
<g mask="url(#mask0_1256_262)">
<path d="M943.795 628.997L898.544 577.049L794.649 458.138L629.269 271.858L556.827 190.69L552.566 185.82L547.695 180.341L546.478 178.921C546.478 178.921 585.236 234.521 602.687 256.233L728.091 413.09C795.055 496.693 866.077 582.731 883.934 605.661L662.142 515.767L205.37 328.878C206.885 327.277 208.513 325.785 210.24 324.414L298.307 251.769L413.971 155.788C469.977 109.319 525.577 62.6477 581.38 16.179C610.195 -7.76547 639.415 -32.3188 670.868 -58.9014C673.493 -60.9137 675.586 -63.5372 676.965 -66.5434C678.344 -69.5495 678.968 -72.8472 678.782 -76.1495C678.263 -79.3643 676.978 -82.407 675.035 -85.0206C673.093 -87.6341 670.55 -89.7418 667.621 -91.1655C662.938 -93.6466 658.129 -95.8818 653.214 -97.8619L648.141 -99.8911L579.351 -129.315L440.351 -188.364C363.444 -221.034 272.536 -259.589 180.005 -298.347C174.857 -300.531 169.358 -301.768 163.771 -301.999C161.35 -302.02 158.945 -301.608 156.669 -300.782C71.0369 -265.271 -15.6098 -228.745 -96.1689 -194.452C-152.175 -170.778 -208.045 -146.833 -263.781 -122.618L-322.83 -97.4561L-326.077 -95.8327L-328.715 -94.4123C-339.808 -89.5422 -345.896 -83.6575 -346.978 -76.7582C-346.978 -70.2648 -343.934 -63.1626 -335.208 -56.4662C-240.648 22.8754 -156.03 93.4915 -76.8915 159.643L30.4531 248.928L99.2429 306.151C105.33 311.021 111.418 316.297 117.708 321.776L125.622 328.27L-413.535 549.046L-551.724 605.052L-216.481 178.816L-225.835 189.472L-229.893 194.14C-233.546 198.198 -237.198 202.053 -240.648 206.112L-286.305 257.248C-325.265 301.281 -365.646 346.735 -405.013 391.783C-432.204 422.424 -460.613 455.5 -487.398 486.75L-539.751 547.626L-570.595 582.934L-582.568 596.53L-583.988 598.153L-610.57 628.591C-610.57 628.591 -622.34 640.766 -616.252 651.927C-615.23 654.212 -613.538 656.134 -611.401 657.438C-609.263 658.743 -606.78 659.368 -604.28 659.232C-601.995 659.206 -599.731 658.794 -597.584 658.014L-542.795 636.505L-539.751 635.287L-510.531 623.924L-332.57 554.322L-289.957 537.683C-217.921 509.477 -143.449 480.459 -70.1953 451.442L26.5976 412.887C68.8049 395.842 112.433 378.391 155.452 361.548C158.51 360.45 161.739 359.9 164.989 359.925C168.458 359.866 171.904 360.486 175.135 361.751C226.879 382.043 279.638 402.335 330.368 422.627L438.119 465.241C550.333 509.68 661.331 553.308 766.646 594.297L841.32 623.315L931.011 658.217C933.073 659.075 935.272 659.556 937.504 659.638C940.046 659.716 942.555 659.045 944.719 657.711C946.883 656.376 948.608 654.436 949.68 652.13C955.564 641.172 944.201 629.403 943.795 628.997ZM166.612 -271.561C244.533 -174.16 328.948 -85.2808 406.26 12.5265L422.494 32.8185L203.341 -260.198L625.008 -69.6561L622.979 -68.2356L618.92 -64.786L554.392 -11.8239C495.748 36.268 436.901 84.36 378.46 132.655C320.019 180.95 254.679 234.115 184.875 292.962H183.657C174.526 300.673 170.062 304.528 165.801 304.528C161.539 304.528 157.075 300.875 147.944 293.367L53.5859 215.446L-33.8726 143.207L-175.916 26.1221L-265.81 -46.3203L-281.232 -59.1043L-294.218 -69.6561L-81.5587 -166.043L127.246 -260.806H130.087C95.3873 -213.526 -93.2303 33.1339 -93.2303 33.1339L166.612 -271.561Z" fill="white" fill-opacity="0.02"/>
</g>
</svg>
