<svg width="33" height="33" viewBox="0 0 33 33" fill="none" xmlns="http://www.w3.org/2000/svg">
<circle cx="16.5" cy="16.5" r="16.5" fill="white"/>
<path d="M13.4002 7.19922C10.5322 7.19922 8.2002 9.53122 8.2002 12.3992V19.5992C8.2002 22.4672 10.5322 24.7992 13.4002 24.7992H20.6002C23.4682 24.7992 25.8002 22.4672 25.8002 19.5992V12.3992C25.8002 9.53122 23.4682 7.19922 20.6002 7.19922H13.4002ZM21.8002 10.3992C22.2402 10.3992 22.6002 10.7592 22.6002 11.1992C22.6002 11.6392 22.2402 11.9992 21.8002 11.9992C21.3602 11.9992 21.0002 11.6392 21.0002 11.1992C21.0002 10.7592 21.3602 10.3992 21.8002 10.3992ZM17.0002 11.5992C19.4282 11.5992 21.4002 13.5712 21.4002 15.9992C21.4002 18.4272 19.4282 20.3992 17.0002 20.3992C14.5722 20.3992 12.6002 18.4272 12.6002 15.9992C12.6002 13.5712 14.5722 11.5992 17.0002 11.5992ZM17.0002 12.3992C15.0162 12.3992 13.4002 14.0152 13.4002 15.9992C13.4002 17.9832 15.0162 19.5992 17.0002 19.5992C18.9842 19.5992 20.6002 17.9832 20.6002 15.9992C20.6002 14.0152 18.9842 12.3992 17.0002 12.3992Z" fill="black"/>
</svg>
