<svg width="34" height="34" viewBox="0 0 34 34" fill="none" xmlns="http://www.w3.org/2000/svg">
<path d="M16.9004 0.355469C7.78543 0.355469 0.396484 7.74441 0.396484 16.8594C0.396484 25.9744 7.78543 33.3633 16.9004 33.3633C26.0154 33.3633 33.4043 25.9744 33.4043 16.8594C33.4043 7.74441 26.0154 0.355469 16.9004 0.355469ZM12.8604 23.6999H9.51834V12.9449H12.8604V23.6999ZM11.1687 11.6245C10.1132 11.6245 9.43066 10.8767 9.43066 9.95181C9.43066 9.00799 10.1338 8.28251 11.2117 8.28251C12.2896 8.28251 12.9498 9.00799 12.9704 9.95181C12.9704 10.8767 12.2896 11.6245 11.1687 11.6245ZM25.0664 23.6999H21.7244V17.7396C21.7244 16.3522 21.2396 15.4101 20.031 15.4101C19.1078 15.4101 18.5594 16.0479 18.317 16.6617C18.2276 16.88 18.2052 17.1895 18.2052 17.4972V23.6982H14.8615V16.3746C14.8615 15.0319 14.8185 13.9093 14.7738 12.9431H17.6775L17.8305 14.4371H17.8975C18.3376 13.7357 19.4155 12.7007 21.2189 12.7007C23.4177 12.7007 25.0664 14.1741 25.0664 17.3408V23.6999Z" fill="white"/>
</svg>
