<svg width="940" height="516" viewBox="0 0 940 516" fill="none" xmlns="http://www.w3.org/2000/svg">
<line x1="889.5" y1="516" x2="889.5" y2="-2.18557e-08" stroke="white" stroke-opacity="0.08"/>
<line x1="749.5" y1="516" x2="749.5" y2="-2.18557e-08" stroke="white" stroke-opacity="0.08"/>
<line x1="609.5" y1="516" x2="609.5" y2="-2.18557e-08" stroke="white" stroke-opacity="0.08"/>
<line x1="469.5" y1="516" x2="469.5" y2="-2.18557e-08" stroke="white" stroke-opacity="0.08"/>
<line x1="329.5" y1="516" x2="329.5" y2="-2.18557e-08" stroke="white" stroke-opacity="0.08"/>
<line x1="189.5" y1="516" x2="189.5" y2="-2.18557e-08" stroke="white" stroke-opacity="0.08"/>
<line x1="49.5" y1="516" x2="49.5" y2="-2.18557e-08" stroke="white" stroke-opacity="0.08"/>
<line x1="1080" y1="95.5" x2="-4.37115e-08" y2="95.4999" stroke="white" stroke-opacity="0.08"/>
<line x1="1080" y1="235.5" x2="-4.37115e-08" y2="235.5" stroke="white" stroke-opacity="0.08"/>
<line x1="1080" y1="375.5" x2="-4.37115e-08" y2="375.5" stroke="white" stroke-opacity="0.08"/>
<line x1="199" y1="376" x2="180" y2="376" stroke="white" stroke-opacity="0.15" stroke-width="2"/>
<line x1="190" y1="366" x2="190" y2="385" stroke="white" stroke-opacity="0.15" stroke-width="2"/>
<line x1="339" y1="376" x2="320" y2="376" stroke="white" stroke-opacity="0.15" stroke-width="2"/>
<line x1="330" y1="366" x2="330" y2="385" stroke="white" stroke-opacity="0.15" stroke-width="2"/>
<line x1="479" y1="376" x2="460" y2="376" stroke="white" stroke-opacity="0.15" stroke-width="2"/>
<line x1="470" y1="366" x2="470" y2="385" stroke="white" stroke-opacity="0.15" stroke-width="2"/>
<line x1="619" y1="376" x2="600" y2="376" stroke="white" stroke-opacity="0.15" stroke-width="2"/>
<line x1="610" y1="366" x2="610" y2="385" stroke="white" stroke-opacity="0.15" stroke-width="2"/>
<line x1="759" y1="376" x2="740" y2="376" stroke="white" stroke-opacity="0.15" stroke-width="2"/>
<line x1="750" y1="366" x2="750" y2="385" stroke="white" stroke-opacity="0.15" stroke-width="2"/>
<line x1="899" y1="376" x2="880" y2="376" stroke="white" stroke-opacity="0.15" stroke-width="2"/>
<line x1="890" y1="366" x2="890" y2="385" stroke="white" stroke-opacity="0.15" stroke-width="2"/>
<line x1="199" y1="236" x2="180" y2="236" stroke="white" stroke-opacity="0.15" stroke-width="2"/>
<line x1="190" y1="226" x2="190" y2="245" stroke="white" stroke-opacity="0.15" stroke-width="2"/>
<line x1="339" y1="236" x2="320" y2="236" stroke="white" stroke-opacity="0.15" stroke-width="2"/>
<line x1="330" y1="226" x2="330" y2="245" stroke="white" stroke-opacity="0.15" stroke-width="2"/>
<line x1="479" y1="236" x2="460" y2="236" stroke="white" stroke-opacity="0.15" stroke-width="2"/>
<line x1="470" y1="226" x2="470" y2="245" stroke="white" stroke-opacity="0.15" stroke-width="2"/>
<line x1="619" y1="236" x2="600" y2="236" stroke="white" stroke-opacity="0.15" stroke-width="2"/>
<line x1="610" y1="226" x2="610" y2="245" stroke="white" stroke-opacity="0.15" stroke-width="2"/>
<line x1="759" y1="236" x2="740" y2="236" stroke="white" stroke-opacity="0.15" stroke-width="2"/>
<line x1="750" y1="226" x2="750" y2="245" stroke="white" stroke-opacity="0.15" stroke-width="2"/>
<line x1="899" y1="236" x2="880" y2="236" stroke="white" stroke-opacity="0.15" stroke-width="2"/>
<line x1="890" y1="226" x2="890" y2="245" stroke="white" stroke-opacity="0.15" stroke-width="2"/>
<line x1="199" y1="96" x2="180" y2="96" stroke="white" stroke-opacity="0.15" stroke-width="2"/>
<line x1="190" y1="86" x2="190" y2="105" stroke="white" stroke-opacity="0.15" stroke-width="2"/>
<line x1="339" y1="96" x2="320" y2="96" stroke="white" stroke-opacity="0.15" stroke-width="2"/>
<line x1="330" y1="86" x2="330" y2="105" stroke="white" stroke-opacity="0.15" stroke-width="2"/>
<line x1="479" y1="96" x2="460" y2="96" stroke="white" stroke-opacity="0.15" stroke-width="2"/>
<line x1="470" y1="86" x2="470" y2="105" stroke="white" stroke-opacity="0.15" stroke-width="2"/>
<line x1="619" y1="96" x2="600" y2="96" stroke="white" stroke-opacity="0.15" stroke-width="2"/>
<line x1="610" y1="86" x2="610" y2="105" stroke="white" stroke-opacity="0.15" stroke-width="2"/>
<line x1="759" y1="96" x2="740" y2="96" stroke="white" stroke-opacity="0.15" stroke-width="2"/>
<line x1="750" y1="86" x2="750" y2="105" stroke="white" stroke-opacity="0.15" stroke-width="2"/>
<line x1="899" y1="96" x2="880" y2="96" stroke="white" stroke-opacity="0.15" stroke-width="2"/>
<line x1="890" y1="86" x2="890" y2="105" stroke="white" stroke-opacity="0.15" stroke-width="2"/>
</svg>
