<svg width="34" height="34" viewBox="0 0 34 34" fill="none" xmlns="http://www.w3.org/2000/svg">
<path d="M16.8809 0.355469C7.7659 0.355469 0.376953 7.74441 0.376953 16.8594C0.376953 25.9744 7.7659 33.3633 16.8809 33.3633C25.9958 33.3633 33.3848 25.9744 33.3848 16.8594C33.3848 7.74441 25.9958 0.355469 16.8809 0.355469ZM23.5942 13.8749C23.6011 14.0159 23.6028 14.1569 23.6028 14.2944C23.6028 18.5923 20.3347 23.5452 14.3554 23.5452C12.5886 23.5481 10.8586 23.0407 9.37331 22.0839C9.62602 22.1149 9.88562 22.1269 10.1486 22.1269C11.6718 22.1269 13.0729 21.6094 14.1852 20.7361C13.5074 20.7228 12.8506 20.4983 12.3064 20.094C11.7622 19.6897 11.3576 19.1257 11.1492 18.4806C11.636 18.5731 12.1375 18.5537 12.6156 18.4238C11.8799 18.275 11.2183 17.8764 10.743 17.2955C10.2676 16.7146 10.0079 15.9871 10.0077 15.2365V15.197C10.4461 15.4394 10.9481 15.5872 11.481 15.6044C10.7913 15.1453 10.303 14.44 10.1161 13.6328C9.92912 12.8255 10.0576 11.9774 10.4753 11.2618C11.2918 12.2658 12.3101 13.0871 13.4642 13.6726C14.6182 14.2581 15.8824 14.5947 17.1748 14.6606C17.0105 13.9631 17.0813 13.2309 17.376 12.5778C17.6708 11.9247 18.173 11.3873 18.8047 11.0491C19.4364 10.7109 20.1622 10.5909 20.8691 10.7077C21.5761 10.8245 22.2246 11.1716 22.714 11.695C23.4415 11.5511 24.1391 11.2843 24.777 10.9059C24.5345 11.6592 24.0269 12.2988 23.3483 12.7059C23.9928 12.6283 24.622 12.455 25.2154 12.1919C24.7795 12.845 24.2305 13.4149 23.5942 13.8749Z" fill="white"/>
</svg>
