<svg width="34" height="34" viewBox="0 0 34 34" fill="none" xmlns="http://www.w3.org/2000/svg">
<path d="M19.6484 16.5723L15.7872 14.7706C15.4502 14.6142 15.1734 14.7895 15.1734 15.1626V18.5562C15.1734 18.9293 15.4502 19.1046 15.7872 18.9482L19.6467 17.1465C19.9854 16.9883 19.9854 16.7305 19.6484 16.5723ZM16.8926 0.355469C7.77761 0.355469 0.388672 7.74441 0.388672 16.8594C0.388672 25.9744 7.77761 33.3633 16.8926 33.3633C26.0076 33.3633 33.3965 25.9744 33.3965 16.8594C33.3965 7.74441 26.0076 0.355469 16.8926 0.355469ZM16.8926 23.5641C8.44465 23.5641 8.2968 22.8025 8.2968 16.8594C8.2968 10.9163 8.44465 10.1547 16.8926 10.1547C25.3405 10.1547 25.4884 10.9163 25.4884 16.8594C25.4884 22.8025 25.3405 23.5641 16.8926 23.5641Z" fill="white"/>
</svg>
